<svg width="400" height="400" xmlns="http://www.w3.org/2000/svg">
 <defs>
  <linearGradient id="a" x1="0.5" x2="0.5" y1="-0.00001" y2="0.99999">
   <stop offset="0.394" stop-color="#80e8be"/>
   <stop offset="1" stop-color="#00c278"/>
  </linearGradient>
 </defs>
 <g>
  <title>Layer 1</title>
  <path fill="#f3c5ff" d="m261.037,297.928c-6.253,6.731 -13.381,12.81 -21.212,18.095c-21.628,14.653 -48.694,23.35 -78.082,23.35c-20.519,0 -39.907,-4.236 -57.086,-11.782c-24.357,24.816 -63.267,22.556 -63.267,22.556l30.59,-43.054c-23.747,-20.488 -38.472,-49.03 -38.472,-80.618c0,-28.095 11.649,-53.787 30.926,-73.542c6.822,-6.985 14.603,-13.238 23.156,-18.584c-5.194,13.075 -8.024,27.127 -8.024,41.76c0,69.764 64.234,126.31 143.458,126.31c13.166,0 25.905,-1.558 38.013,-4.491z" id="svg_1"/>
  <path fill="url(#a)" d="m289.977,226.475c0,27.117 -10.845,51.995 -28.939,71.454c-12.108,2.933 -24.847,4.491 -38.013,4.491c-79.224,0 -143.458,-56.546 -143.458,-126.31c0,-14.632 2.83,-28.685 8.024,-41.76c20.936,-13.075 46.516,-20.773 74.152,-20.773c70.822,-0.001 128.234,50.537 128.234,112.898z" id="svg_2"/>
  <path fill="#9b89b3" d="m323.458,266.3l34.226,48.175s-43.543,2.525 -70.782,-25.233a155.02,155.02 0 0 1 -25.864,8.686c-12.108,2.933 -24.847,4.491 -38.013,4.491c-79.224,0 -143.458,-56.546 -143.458,-126.31c0,-14.632 2.83,-28.685 8.024,-41.76c19.581,-49.245 72.828,-84.549 135.433,-84.549c79.232,0 143.467,56.536 143.467,126.309c0,35.336 -16.466,67.27 -43.033,90.191z" id="svg_3"/>
  <circle cx="169.462" cy="183.78" r="20.53" fill="#ffffff" id="svg_4"/>
  <circle cx="225.065" cy="183.78" r="20.53" fill="#ffffff" id="svg_5"/>
  <circle cx="280.669" cy="183.78" r="20.53" fill="#ffffff" id="svg_6"/>
 </g>
</svg>